<svg xmlns="http://www.w3.org/2000/svg" xmlns:xlink="http://www.w3.org/1999/xlink" width="300px" height="96px" viewBox="0 0 300 96" version="1.1">
<g id="surface1">
<path style=" stroke:none;fill-rule:nonzero;fill:#b5080a;fill-opacity:1;" d="M 161.425781 37.828125 L 130.523438 37.828125 C 128.875 37.769531 127.3125 37.074219 126.167969 35.886719 C 125.023438 34.699219 124.382812 33.113281 124.382812 31.464844 C 124.382812 29.8125 125.023438 28.230469 126.167969 27.042969 C 127.3125 25.855469 128.875 25.160156 130.523438 25.101562 L 191.972656 25.101562 L 191.972656 2.566406 L 131.972656 2.566406 C 111.328125 2.566406 99.488281 13.050781 99.488281 31.339844 C 99.488281 48.988281 110.457031 59.570312 129.652344 60.378906 L 163.496094 60.378906 C 165.183594 60.378906 166.800781 61.050781 167.996094 62.242188 C 169.1875 63.4375 169.859375 65.054688 169.859375 66.742188 C 169.859375 68.433594 169.1875 70.050781 167.996094 71.242188 C 166.800781 72.4375 165.183594 73.109375 163.496094 73.109375 L 101.816406 73.109375 L 101.816406 95.691406 L 161.414062 95.691406 C 183.054688 95.691406 195.46875 85.089844 195.46875 66.601562 C 195.46875 48.316406 183.066406 37.828125 161.414062 37.828125 "/>
<path style=" stroke:none;fill-rule:nonzero;fill:#b5080a;fill-opacity:1;" d="M 61.921875 37.828125 L 31.015625 37.828125 C 29.367188 37.769531 27.804688 37.074219 26.660156 35.886719 C 25.515625 34.699219 24.875 33.113281 24.875 31.464844 C 24.875 29.8125 25.515625 28.230469 26.660156 27.042969 C 27.804688 25.855469 29.367188 25.160156 31.015625 25.101562 L 92.464844 25.101562 L 92.464844 2.566406 L 32.464844 2.566406 C 11.835938 2.566406 0 13.050781 0 31.339844 C 0 48.984375 10.96875 59.570312 30.164062 60.371094 L 64 60.371094 C 65.6875 60.371094 67.304688 61.042969 68.5 62.234375 C 69.695312 63.429688 70.363281 65.046875 70.363281 66.734375 C 70.363281 68.425781 69.695312 70.042969 68.5 71.234375 C 67.304688 72.429688 65.6875 73.101562 64 73.101562 L 2.308594 73.101562 L 2.308594 95.691406 L 61.90625 95.691406 C 83.546875 95.691406 95.960938 85.089844 95.960938 66.601562 C 95.960938 48.316406 83.558594 37.828125 61.90625 37.828125 "/>
<path style=" stroke:none;fill-rule:nonzero;fill:#b5080a;fill-opacity:1;" d="M 249.820312 72.769531 C 234.792969 72.769531 224.695312 62.949219 224.695312 48.328125 C 224.515625 44.992188 225.042969 41.652344 226.246094 38.535156 C 227.445312 35.414062 229.296875 32.585938 231.667969 30.230469 C 234.039062 27.878906 236.886719 26.054688 240.011719 24.878906 C 243.140625 23.703125 246.484375 23.199219 249.820312 23.40625 C 264.523438 23.40625 272.265625 32.289062 275.507812 48.976562 L 299.742188 43.777344 C 297.265625 18.101562 277.035156 0 249.820312 0 C 236.320312 -0.324219 223.226562 4.621094 213.3125 13.785156 C 208.664062 18.402344 205 23.917969 202.542969 29.992188 C 200.085938 36.066406 198.886719 42.578125 199.015625 49.128906 C 199.015625 76.542969 219.90625 95.691406 249.816406 95.691406 L 299.996094 95.691406 L 299.996094 72.769531 Z M 249.820312 72.769531 "/>
</g>
</svg>